<?xml version="1.0" encoding="UTF-8"?>
<svg id="Layer_1" data-name="Layer 1" xmlns="http://www.w3.org/2000/svg" viewBox="0 0 48 48">
  <path d="M0,35.5c0,4.142,10.745,8.5,24,8.5s24-4.358,24-8.5v-2c0-4.142-10.745-8.5-24-8.5S0,29.358,0,33.5v2Z" fill="#ffc343" stroke-width="0"/>
  <path d="M24,41C11.278,41,.874,36.985.058,33c-.034.167-.058.334-.058.5v2c0,4.142,10.745,8.5,24,8.5s24-4.358,24-8.5v-2c0-.166-.024-.333-.058-.5-.816,3.985-11.22,8-23.942,8Z" fill="#ffa221" stroke-width="0"/>
  <path d="M40.025,13.829c.414-.915.097-2.047-.843-2.568l-.437-.242c-.501-.278-1.055-.304-1.551-.152-2.301-1.968-4.996-3.404-7.95-4.179-.366-.096-.631-.409-.65-.787h0c-.053-1.065-.932-1.9-1.997-1.9h-5.195c-1.066,0-1.944.836-1.998,1.9-.019.378-.284.691-.65.787-2.953.776-5.648,2.211-7.95,4.179-.496-.152-1.05-.126-1.551.152l-.437.242c-.94.521-1.256,1.653-.843,2.568-3.095,3.936-4.975,9.153-4.975,15.219,0,1.02.076,2.021.219,3.001.097.669.496,1.262,1.107,1.552,5.502,2.608,12.8,4.399,19.674,4.399s14.172-1.791,19.674-4.399c.611-.29,1.01-.882,1.107-1.552.143-.98.219-1.982.219-3.001,0-6.066-1.879-11.283-4.975-15.219Z" fill="#ffc343" stroke-width="0"/>
  <path d="M24,35c-4.059,0-7.982-.575-11.693-1.65-2.509-.726-4.239-3.022-4.298-5.633-.005-.238-.008-.477-.008-.717,0-3.533.604-6.92,1.696-10.081.123-.355.587-.447.844-.173l1.259,1.349c.401.429,1.086-.065.805-.58l-3.494-6.416-.292.162c-.945.524-1.261,1.666-.836,2.584-3.093,3.934-4.981,9.141-4.981,15.205v.34c.02.901.1,1.792.22,2.663.092.667.496,1.256,1.104,1.544,1.501.711,3.143,1.362,4.865,1.923,4.59,1.53,9.82,2.48,14.81,2.48,6.87,0,14.17-1.79,19.67-4.4.62-.29,1.01-.88,1.11-1.55.12-.87.2-1.76.22-2.66-6.18,3.57-13.35,5.61-21,5.61Z" fill="#ffa221" stroke-width="0"/>
  <path d="M19.5,5.4v13.32c0,.6-.85.7-.99.12l-2.64-11.14c.93-.42,1.89-.75,2.88-1.01.37-.1.64-.41.65-.79.01-.17.04-.34.1-.5Z" fill="#ffa221" stroke-width="0"/>
  <path d="M32.13,7.7l-2.64,11.14c-.14.58-.99.48-.99-.12V5.4c.06.16.09.33.1.5.01.38.28.69.65.79.99.26,1.95.59,2.88,1.01Z" fill="#ffa221" stroke-width="0"/>
  <path d="M39.675,14.375c.888-.951.646-2.483-.492-3.114l-.292-.162-3.494,6.416c-.281.516.404,1.01.805.58l3.474-3.72Z" fill="#ffa221" stroke-width="0"/>
</svg>